%TF.GenerationSoftware,KiCad,Pcbnew,7.0.5*%
%TF.CreationDate,2023-10-10T15:43:30-03:00*%
%TF.ProjectId,intex_spa_V4,696e7465-785f-4737-9061-5f56342e6b69,Marcio Ant_o*%
%TF.SameCoordinates,Original*%
%TF.FileFunction,Soldermask,Bot*%
%TF.FilePolarity,Negative*%
%FSLAX46Y46*%
G04 Gerber Fmt 4.6, Leading zero omitted, Abs format (unit mm)*
G04 Created by KiCad (PCBNEW 7.0.5) date 2023-10-10 15:43:30*
%MOMM*%
%LPD*%
G01*
G04 APERTURE LIST*
G04 Aperture macros list*
%AMRoundRect*
0 Rectangle with rounded corners*
0 $1 Rounding radius*
0 $2 $3 $4 $5 $6 $7 $8 $9 X,Y pos of 4 corners*
0 Add a 4 corners polygon primitive as box body*
4,1,4,$2,$3,$4,$5,$6,$7,$8,$9,$2,$3,0*
0 Add four circle primitives for the rounded corners*
1,1,$1+$1,$2,$3*
1,1,$1+$1,$4,$5*
1,1,$1+$1,$6,$7*
1,1,$1+$1,$8,$9*
0 Add four rect primitives between the rounded corners*
20,1,$1+$1,$2,$3,$4,$5,0*
20,1,$1+$1,$4,$5,$6,$7,0*
20,1,$1+$1,$6,$7,$8,$9,0*
20,1,$1+$1,$8,$9,$2,$3,0*%
%AMFreePoly0*
4,1,25,0.333266,0.742596,0.345389,0.732242,0.732242,0.345389,0.760749,0.289441,0.762000,0.273547,0.762000,-0.273547,0.742596,-0.333266,0.732242,-0.345389,0.345389,-0.732242,0.289441,-0.760749,0.273547,-0.762000,-0.273547,-0.762000,-0.333266,-0.742596,-0.345389,-0.732242,-0.732242,-0.345389,-0.760749,-0.289441,-0.762000,-0.273547,-0.762000,0.273547,-0.742596,0.333266,-0.732242,0.345389,
-0.345389,0.732242,-0.289441,0.760749,-0.273547,0.762000,0.273547,0.762000,0.333266,0.742596,0.333266,0.742596,$1*%
G04 Aperture macros list end*
%ADD10C,1.879600*%
%ADD11O,3.251200X1.727200*%
%ADD12C,5.000000*%
%ADD13R,2.400000X2.400000*%
%ADD14C,2.400000*%
%ADD15R,1.600000X1.600000*%
%ADD16O,1.600000X1.600000*%
%ADD17RoundRect,0.101600X-0.654000X-0.654000X0.654000X-0.654000X0.654000X0.654000X-0.654000X0.654000X0*%
%ADD18C,1.511200*%
%ADD19FreePoly0,180.000000*%
%ADD20C,3.000000*%
%ADD21C,2.500000*%
%ADD22FreePoly0,90.000000*%
%ADD23FreePoly0,0.000000*%
%ADD24C,0.803200*%
%ADD25RoundRect,0.101600X-1.390650X-1.390650X1.390650X-1.390650X1.390650X1.390650X-1.390650X1.390650X0*%
%ADD26RoundRect,0.101600X0.939800X0.939800X-0.939800X0.939800X-0.939800X-0.939800X0.939800X-0.939800X0*%
%ADD27RoundRect,0.571500X0.469900X0.469900X-0.469900X0.469900X-0.469900X-0.469900X0.469900X-0.469900X0*%
%ADD28C,2.082800*%
%ADD29C,2.000000*%
%ADD30R,2.000000X2.000000*%
%ADD31C,2.984500*%
%ADD32C,3.373200*%
G04 APERTURE END LIST*
D10*
%TO.C,D8*%
X130046001Y-73517637D03*
X119886001Y-73517637D03*
%TD*%
D11*
%TO.C,FLOW_PROBE_2*%
X90170000Y-44450000D03*
X90170000Y-41910000D03*
X90170000Y-39370000D03*
%TD*%
D12*
%TO.C,@HOLE2*%
X246380000Y-36080000D03*
%TD*%
D13*
%TO.C,C4*%
X246340000Y-123399725D03*
D14*
X243840000Y-123399725D03*
%TD*%
D13*
%TO.C,C1*%
X157480000Y-68580000D03*
D14*
X159980000Y-68580000D03*
%TD*%
D10*
%TO.C,D13*%
X201839881Y-103260090D03*
X191679881Y-103260090D03*
%TD*%
D15*
%TO.C,S1*%
X176585753Y-50963131D03*
D16*
X184205753Y-50963131D03*
%TD*%
D17*
%TO.C,U$2*%
X41393703Y-105456535D03*
D18*
X41393703Y-151176535D03*
X66793703Y-151176535D03*
X41393703Y-148636535D03*
X41393703Y-107996535D03*
X41393703Y-138476535D03*
X66793703Y-105456535D03*
X66793703Y-120696535D03*
X66793703Y-138476535D03*
X66793703Y-141016535D03*
X66793703Y-135936535D03*
X66793703Y-128316535D03*
X41393703Y-135936535D03*
X41393703Y-141016535D03*
X41393703Y-133396535D03*
X66793703Y-143556535D03*
X66793703Y-133396535D03*
X66793703Y-130856535D03*
X66793703Y-125776535D03*
X66793703Y-123236535D03*
X66793703Y-118156535D03*
X66793703Y-110536535D03*
X66793703Y-107996535D03*
X41393703Y-125776535D03*
X41393703Y-128316535D03*
X41393703Y-130856535D03*
X41393703Y-120696535D03*
X41393703Y-123236535D03*
X41393703Y-115616535D03*
X41393703Y-118156535D03*
X66793703Y-115616535D03*
X66793703Y-148636535D03*
X66793703Y-146096535D03*
X41393703Y-143556535D03*
X41393703Y-146096535D03*
X41393703Y-113076535D03*
X41393703Y-110536535D03*
X66793703Y-113076535D03*
%TD*%
D19*
%TO.C,R34*%
X213269881Y-94370090D03*
X208189881Y-94370090D03*
%TD*%
D20*
%TO.C,Rel\u00EA ECO*%
X127000000Y-35560000D03*
D21*
X120950000Y-37510000D03*
D20*
X120950000Y-49710000D03*
X133000000Y-49760000D03*
D21*
X132950000Y-37510000D03*
%TD*%
D22*
%TO.C,T_HEATER2_RELAY*%
X234859881Y-93100090D03*
X232954881Y-94370090D03*
X234859881Y-95640090D03*
%TD*%
D23*
%TO.C,R9*%
X124966001Y-68945637D03*
X130046001Y-68945637D03*
%TD*%
D20*
%TO.C,Rel\u00EA CL02*%
X227576577Y-64842656D03*
D21*
X221526577Y-66792656D03*
D20*
X221526577Y-78992656D03*
X233576577Y-79042656D03*
D21*
X233526577Y-66792656D03*
%TD*%
D19*
%TO.C,R11*%
X141749911Y-71183462D03*
X136669911Y-71183462D03*
%TD*%
D24*
%TO.C,*%
X239674070Y-100013838D03*
%TD*%
%TO.C,*%
X240754486Y-86047546D03*
%TD*%
D23*
%TO.C,R12*%
X141749911Y-75501462D03*
X146829911Y-75501462D03*
%TD*%
D13*
%TO.C,C3*%
X246340000Y-108928527D03*
D14*
X243840000Y-108928527D03*
%TD*%
D11*
%TO.C,FLOW_PROBE_1*%
X103597799Y-44498322D03*
X103597799Y-41958322D03*
X103597799Y-39418322D03*
%TD*%
D22*
%TO.C,R3*%
X69101522Y-44428802D03*
X69101522Y-34268802D03*
%TD*%
D12*
%TO.C,@HOLE1*%
X31026606Y-35399454D03*
%TD*%
D22*
%TO.C,R4*%
X82550000Y-44450000D03*
X82550000Y-34290000D03*
%TD*%
D23*
%TO.C,LED_HEATER1_RELAY*%
X208189881Y-98688090D03*
X210729881Y-98688090D03*
%TD*%
D25*
%TO.C,*%
X79473503Y-140842664D03*
%TD*%
D19*
%TO.C,R31*%
X196759881Y-94370090D03*
X191679881Y-94370090D03*
%TD*%
D26*
%TO.C,DISPLAY0*%
X34500178Y-132080000D03*
D27*
X34500178Y-129540000D03*
D28*
X34500178Y-127000000D03*
X34500178Y-124460000D03*
%TD*%
D29*
%TO.C,BUBBLES_RELAY*%
X176668681Y-128469559D03*
X184168681Y-128469559D03*
X176668681Y-123469559D03*
X184168681Y-123469559D03*
X176668681Y-133469559D03*
X184168681Y-133469559D03*
D30*
X176668681Y-108469559D03*
D29*
X184168681Y-108469559D03*
%TD*%
D23*
%TO.C,LED_RELAY_CL2*%
X136669911Y-75501462D03*
X139209911Y-75501462D03*
%TD*%
%TO.C,LED_RELAY_CL1*%
X137160000Y-56388000D03*
X139700000Y-56388000D03*
%TD*%
D31*
%TO.C,TERMINAL_BARRIER_POWER 12V*%
X241300000Y-72910000D03*
X241300000Y-64655000D03*
X241300000Y-56400000D03*
X241300000Y-48145000D03*
%TD*%
D19*
%TO.C,R30*%
X196759881Y-90560090D03*
X191679881Y-90560090D03*
%TD*%
D11*
%TO.C,TEMP_FUSED*%
X49751126Y-44255464D03*
X49751126Y-41715464D03*
X49751126Y-39175464D03*
%TD*%
D19*
%TO.C,R10*%
X141749911Y-67373462D03*
X136669911Y-67373462D03*
%TD*%
D22*
%TO.C,T_BUBBLES_RELAY*%
X185329881Y-93100090D03*
X183424881Y-94370090D03*
X185329881Y-95640090D03*
%TD*%
D23*
%TO.C,R38*%
X229779881Y-98561090D03*
X234859881Y-98561090D03*
%TD*%
%TO.C,LED_HEATER2_RELAY*%
X224699881Y-98561090D03*
X227239881Y-98561090D03*
%TD*%
D22*
%TO.C,T_RELAY_CL2*%
X146829911Y-69913462D03*
X144924911Y-71183462D03*
X146829911Y-72453462D03*
%TD*%
D19*
%TO.C,R27*%
X180249881Y-90560090D03*
X175169881Y-90560090D03*
%TD*%
D23*
%TO.C,PUMP0*%
X159086329Y-98005653D03*
X161626329Y-98005653D03*
%TD*%
D19*
%TO.C,R36*%
X229779881Y-90560090D03*
X224699881Y-90560090D03*
%TD*%
D22*
%TO.C,T_PUMP_RELAY0*%
X169246329Y-92417653D03*
X167341329Y-93687653D03*
X169246329Y-94957653D03*
%TD*%
%TO.C,T__HEATER1_RELAY*%
X218349881Y-93100090D03*
X216444881Y-94370090D03*
X218349881Y-95640090D03*
%TD*%
D23*
%TO.C,LED_BUBBLES_RELAY*%
X175169881Y-98688090D03*
X177709881Y-98688090D03*
%TD*%
D10*
%TO.C,D15*%
X234859881Y-103260090D03*
X224699881Y-103260090D03*
%TD*%
D22*
%TO.C,T_PUMP_RELAY1*%
X201839881Y-93100090D03*
X199934881Y-94370090D03*
X201839881Y-95640090D03*
%TD*%
D12*
%TO.C,@HOLE0*%
X32040000Y-149340000D03*
%TD*%
D32*
%TO.C,POWER_SUPPLY_110VAC_5VDC0*%
X93762150Y-131009650D03*
X83012150Y-131009650D03*
X85762150Y-92509650D03*
X93762150Y-92509650D03*
%TD*%
D19*
%TO.C,R7*%
X124966001Y-60817637D03*
X119886001Y-60817637D03*
%TD*%
D21*
%TO.C,Rel\u00EA CL01*%
X216755392Y-66734656D03*
D20*
X216805392Y-78984656D03*
X204755392Y-78934656D03*
D21*
X204755392Y-66734656D03*
D20*
X210805392Y-64784656D03*
%TD*%
D29*
%TO.C,HEATER02_RELAY*%
X226640023Y-128416053D03*
X234140023Y-128416053D03*
X226640023Y-123416053D03*
X234140023Y-123416053D03*
X226640023Y-133416053D03*
X234140023Y-133416053D03*
D30*
X226640023Y-108416053D03*
D29*
X234140023Y-108416053D03*
%TD*%
D23*
%TO.C,LED1*%
X119886001Y-68945637D03*
X122426001Y-68945637D03*
%TD*%
D22*
%TO.C,T_RELAY_CL1*%
X147320000Y-50800000D03*
X145415000Y-52070000D03*
X147320000Y-53340000D03*
%TD*%
D31*
%TO.C,TERMINAL_BARRIER_POWER110v*%
X160539062Y-141336089D03*
X168794062Y-141336089D03*
X177049062Y-141336089D03*
X185304062Y-141336089D03*
X193559062Y-141336089D03*
X201814062Y-141336089D03*
X210069062Y-141336089D03*
X218324062Y-141336089D03*
X226579062Y-141336089D03*
X234834062Y-141336089D03*
%TD*%
D19*
%TO.C,R33*%
X213269881Y-90560090D03*
X208189881Y-90560090D03*
%TD*%
D29*
%TO.C,POWER12V_RELAY*%
X160901607Y-128243264D03*
X168401607Y-128243264D03*
X160901607Y-123243264D03*
X168401607Y-123243264D03*
X160901607Y-133243264D03*
X168401607Y-133243264D03*
D30*
X160901607Y-108243264D03*
D29*
X168401607Y-108243264D03*
%TD*%
D31*
%TO.C,*%
X89700481Y-140929333D03*
%TD*%
D11*
%TO.C,TEMP_PROBE_1*%
X62751522Y-44428802D03*
X62751522Y-41888802D03*
X62751522Y-39348802D03*
%TD*%
D19*
%TO.C,R13*%
X142240000Y-48260000D03*
X137160000Y-48260000D03*
%TD*%
D22*
%TO.C,R1*%
X56101126Y-44255464D03*
X56101126Y-34095464D03*
%TD*%
D23*
%TO.C,JET0*%
X191679881Y-98688090D03*
X194219881Y-98688090D03*
%TD*%
D10*
%TO.C,D14*%
X218349881Y-103260090D03*
X208189881Y-103260090D03*
%TD*%
%TO.C,D9*%
X147320000Y-60960000D03*
X137160000Y-60960000D03*
%TD*%
D23*
%TO.C,R15*%
X142240000Y-56388000D03*
X147320000Y-56388000D03*
%TD*%
D22*
%TO.C,R6*%
X109947799Y-44498322D03*
X109947799Y-34338322D03*
%TD*%
D29*
%TO.C,HEATER01_RELAY*%
X210038036Y-128493093D03*
X217538036Y-128493093D03*
X210038036Y-123493093D03*
X217538036Y-123493093D03*
X210038036Y-133493093D03*
X217538036Y-133493093D03*
D30*
X210038036Y-108493093D03*
D29*
X217538036Y-108493093D03*
%TD*%
D19*
%TO.C,R24*%
X164166329Y-89877653D03*
X159086329Y-89877653D03*
%TD*%
D22*
%TO.C,T_RELAY_ECO*%
X130046001Y-63357637D03*
X128141001Y-64627637D03*
X130046001Y-65897637D03*
%TD*%
D19*
%TO.C,R28*%
X180249881Y-94370090D03*
X175169881Y-94370090D03*
%TD*%
%TO.C,R25*%
X164166329Y-93687653D03*
X159086329Y-93687653D03*
%TD*%
D10*
%TO.C,D10*%
X146829911Y-80073462D03*
X136669911Y-80073462D03*
%TD*%
D19*
%TO.C,R37*%
X229779881Y-94370090D03*
X224699881Y-94370090D03*
%TD*%
D29*
%TO.C,JET_RELAY*%
X193251408Y-128527339D03*
X200751408Y-128527339D03*
X193251408Y-123527339D03*
X200751408Y-123527339D03*
X193251408Y-133527339D03*
X200751408Y-133527339D03*
D30*
X193251408Y-108527339D03*
D29*
X200751408Y-108527339D03*
%TD*%
D19*
%TO.C,R14*%
X142240000Y-52070000D03*
X137160000Y-52070000D03*
%TD*%
D12*
%TO.C,@HOLE3*%
X248920000Y-149860000D03*
%TD*%
D19*
%TO.C,R8*%
X124966001Y-64627637D03*
X119886001Y-64627637D03*
%TD*%
D23*
%TO.C,R32*%
X196759881Y-98688090D03*
X201839881Y-98688090D03*
%TD*%
%TO.C,R29*%
X180249881Y-98688090D03*
X185329881Y-98688090D03*
%TD*%
D13*
%TO.C,C2*%
X175260000Y-68580000D03*
D14*
X177760000Y-68580000D03*
%TD*%
D10*
%TO.C,D11*%
X169246329Y-102577653D03*
X159086329Y-102577653D03*
%TD*%
D11*
%TO.C,TEMP_PROBE_2*%
X76200000Y-44450000D03*
X76200000Y-41910000D03*
X76200000Y-39370000D03*
%TD*%
D23*
%TO.C,R35*%
X213269881Y-98688090D03*
X218349881Y-98688090D03*
%TD*%
D31*
%TO.C,TERMINAL_BARRIER_POWER 12V*%
X165735000Y-37712914D03*
X173990000Y-37712914D03*
X182245000Y-37712914D03*
X190500000Y-37712914D03*
X198755000Y-37712914D03*
X207010000Y-37712914D03*
X215265000Y-37712914D03*
X223520000Y-37712914D03*
%TD*%
D22*
%TO.C,R5*%
X96520000Y-44450000D03*
X96520000Y-34290000D03*
%TD*%
D10*
%TO.C,D12*%
X185329881Y-103260090D03*
X175169881Y-103260090D03*
%TD*%
D23*
%TO.C,R26*%
X164166329Y-98005653D03*
X169246329Y-98005653D03*
%TD*%
M02*
