M48
; DRILL file {KiCad 7.0.5} date Tue Oct 10 15:43:35 2023
; FORMAT={-:-/ absolute / inch / decimal}
; #@! TF.CreationDate,2023-10-10T15:43:35-03:00
; #@! TF.GenerationSoftware,Kicad,Pcbnew,7.0.5
; #@! TF.FileFunction,Plated,1,2,PTH
FMAT,2
INCH
; #@! TA.AperFunction,Plated,PTH,ViaDrill
T1C0.0118
; #@! TA.AperFunction,Plated,PTH,ComponentDrill
T2C0.0157
; #@! TA.AperFunction,Plated,PTH,ViaDrill
T3C0.0197
; #@! TA.AperFunction,Plated,PTH,ViaDrill
T4C0.0236
; #@! TA.AperFunction,Plated,PTH,ComponentDrill
T5C0.0315
; #@! TA.AperFunction,Plated,PTH,ComponentDrill
T6C0.0320
; #@! TA.AperFunction,Plated,PTH,ComponentDrill
T7C0.0394
; #@! TA.AperFunction,Plated,PTH,ComponentDrill
T8C0.0400
; #@! TA.AperFunction,Plated,PTH,ComponentDrill
T9C0.0440
; #@! TA.AperFunction,Plated,PTH,ComponentDrill
T10C0.0472
; #@! TA.AperFunction,Plated,PTH,ComponentDrill
T11C0.0512
; #@! TA.AperFunction,Plated,PTH,ComponentDrill
T12C0.0730
%
G90
G05
T1
X1.9Y-4.5
X2.0Y-4.5
X2.5662Y-3.7662
X7.7004Y-2.8139
X7.8277Y-2.7798
X8.2073Y-2.3386
T2
X9.436Y-3.9376
X9.4785Y-3.3877
T3
X6.8725Y-2.2137
X7.5354Y-2.0939
X7.7504Y-2.2639
X8.5004Y-2.1139
X8.6931Y-2.2693
T4
X6.9Y-2.3
X7.4554Y-2.0039
X7.8454Y-1.9939
X8.4102Y-2.0128
X8.8002Y-2.0028
T5
X1.6297Y-4.1518
X1.6297Y-4.2518
X1.6297Y-4.3518
X1.6297Y-4.4518
X1.6297Y-4.5518
X1.6297Y-4.6518
X1.6297Y-4.7518
X1.6297Y-4.8518
X1.6297Y-4.9518
X1.6297Y-5.0518
X1.6297Y-5.1518
X1.6297Y-5.2518
X1.6297Y-5.3518
X1.6297Y-5.4518
X1.6297Y-5.5518
X1.6297Y-5.6518
X1.6297Y-5.7518
X1.6297Y-5.8518
X1.6297Y-5.9518
X2.6297Y-4.1518
X2.6297Y-4.2518
X2.6297Y-4.3518
X2.6297Y-4.4518
X2.6297Y-4.5518
X2.6297Y-4.6518
X2.6297Y-4.7518
X2.6297Y-4.8518
X2.6297Y-4.9518
X2.6297Y-5.0518
X2.6297Y-5.1518
X2.6297Y-5.2518
X2.6297Y-5.3518
X2.6297Y-5.4518
X2.6297Y-5.5518
X2.6297Y-5.6518
X2.6297Y-5.7518
X2.6297Y-5.8518
X2.6297Y-5.9518
X6.9522Y-2.0064
X7.2522Y-2.0064
T6
X2.2087Y-1.3423
X2.2087Y-1.7423
X2.7205Y-1.3492
X2.7205Y-1.7492
X3.25Y-1.35
X3.25Y-1.75
X3.8Y-1.35
X3.8Y-1.75
X4.3287Y-1.3519
X4.3287Y-1.7519
X4.7199Y-2.3944
X4.7199Y-2.5444
X4.7199Y-2.7144
X4.8199Y-2.7144
X4.9199Y-2.3944
X4.9199Y-2.5444
X4.9199Y-2.7144
X5.0449Y-2.5444
X5.1199Y-2.4944
X5.1199Y-2.5944
X5.1199Y-2.7144
X5.3807Y-2.6525
X5.3807Y-2.8025
X5.3807Y-2.9725
X5.4Y-1.9
X5.4Y-2.05
X5.4Y-2.22
X5.4807Y-2.9725
X5.5Y-2.22
X5.5807Y-2.6525
X5.5807Y-2.8025
X5.5807Y-2.9725
X5.6Y-1.9
X5.6Y-2.05
X5.6Y-2.22
X5.7057Y-2.8025
X5.725Y-2.05
X5.7807Y-2.7525
X5.7807Y-2.8525
X5.7807Y-2.9725
X5.8Y-2.0
X5.8Y-2.1
X5.8Y-2.22
X6.2632Y-3.5385
X6.2632Y-3.6885
X6.2632Y-3.8585
X6.3632Y-3.8585
X6.4632Y-3.5385
X6.4632Y-3.6885
X6.4632Y-3.8585
X6.5882Y-3.6885
X6.6632Y-3.6385
X6.6632Y-3.7385
X6.6632Y-3.8585
X6.8965Y-3.5654
X6.8965Y-3.7154
X6.8965Y-3.8854
X6.9965Y-3.8854
X7.0965Y-3.5654
X7.0965Y-3.7154
X7.0965Y-3.8854
X7.2215Y-3.7154
X7.2965Y-3.6654
X7.2965Y-3.7654
X7.2965Y-3.8854
X7.5465Y-3.5654
X7.5465Y-3.7154
X7.5465Y-3.8854
X7.6465Y-3.8854
X7.7465Y-3.5654
X7.7465Y-3.7154
X7.7465Y-3.8854
X7.8715Y-3.7154
X7.9465Y-3.6654
X7.9465Y-3.7654
X7.9465Y-3.8854
X8.1965Y-3.5654
X8.1965Y-3.7154
X8.1965Y-3.8854
X8.2965Y-3.8854
X8.3965Y-3.5654
X8.3965Y-3.7154
X8.3965Y-3.8854
X8.5215Y-3.7154
X8.5965Y-3.6654
X8.5965Y-3.7654
X8.5965Y-3.8854
X8.8465Y-3.5654
X8.8465Y-3.7154
X8.8465Y-3.8804
X8.9465Y-3.8804
X9.0465Y-3.5654
X9.0465Y-3.7154
X9.0465Y-3.8804
X9.1715Y-3.7154
X9.2465Y-3.6654
X9.2465Y-3.7654
X9.2465Y-3.8804
T7
X4.7618Y-1.4768
X5.2343Y-1.4768
X8.0612Y-2.6273
X8.5337Y-2.6273
X8.7215Y-2.6296
X9.194Y-2.6296
T8
X1.3583Y-4.9
X1.3583Y-5.0
X1.3583Y-5.1
X1.3583Y-5.2
X1.9587Y-1.5423
X1.9587Y-1.6423
X1.9587Y-1.7423
X2.4705Y-1.5492
X2.4705Y-1.6492
X2.4705Y-1.7492
X3.0Y-1.55
X3.0Y-1.65
X3.0Y-1.75
X3.55Y-1.55
X3.55Y-1.65
X3.55Y-1.75
X4.0787Y-1.5519
X4.0787Y-1.6519
X4.0787Y-1.7519
T9
X4.7199Y-2.8944
X5.1199Y-2.8944
X5.3807Y-3.1525
X5.4Y-2.4
X5.7807Y-3.1525
X5.8Y-2.4
X6.2632Y-4.0385
X6.6632Y-4.0385
X6.8965Y-4.0654
X7.2965Y-4.0654
X7.5465Y-4.0654
X7.9465Y-4.0654
X8.1965Y-4.0654
X8.5965Y-4.0654
X8.8465Y-4.0654
X9.2465Y-4.0654
T10
X6.2Y-2.7
X6.2984Y-2.7
X6.9Y-2.7
X6.9984Y-2.7
X9.6Y-4.2885
X9.6Y-4.8583
X9.6984Y-4.2885
X9.6984Y-4.8583
T11
X3.2682Y-5.1579
X3.3765Y-3.6421
X3.6914Y-3.6421
X3.6914Y-5.1579
X4.7618Y-1.9571
X5.0Y-1.4
X5.2362Y-1.9591
X6.3347Y-4.2615
X6.3347Y-4.8521
X6.3347Y-5.0489
X6.3347Y-5.2458
X6.63Y-4.2615
X6.63Y-4.8521
X6.63Y-5.0489
X6.63Y-5.2458
X6.9555Y-4.2705
X6.9555Y-4.861
X6.9555Y-5.0579
X6.9555Y-5.2547
X7.2507Y-4.2705
X7.2507Y-4.861
X7.2507Y-5.0579
X7.2507Y-5.2547
X7.6083Y-4.2727
X7.6083Y-4.8633
X7.6083Y-5.0601
X7.6083Y-5.257
X7.9036Y-4.2727
X7.9036Y-4.8633
X7.9036Y-5.0601
X7.9036Y-5.257
X8.0612Y-3.1077
X8.2692Y-4.2714
X8.2692Y-4.8619
X8.2692Y-5.0588
X8.2692Y-5.2556
X8.2994Y-2.5506
X8.5356Y-3.1096
X8.5645Y-4.2714
X8.5645Y-4.8619
X8.5645Y-5.0588
X8.5645Y-5.2556
X8.7215Y-3.1099
X8.9228Y-4.2683
X8.9228Y-4.8589
X8.9228Y-5.0558
X8.9228Y-5.2526
X8.9597Y-2.5529
X9.1959Y-3.1119
X9.2181Y-4.2683
X9.2181Y-4.8589
X9.2181Y-5.0558
X9.2181Y-5.2526
T12
X3.1289Y-5.545
X3.5315Y-5.5484
X6.3204Y-5.5644
X6.525Y-1.4848
X6.6454Y-5.5644
X6.85Y-1.4848
X6.9704Y-5.5644
X7.175Y-1.4848
X7.2954Y-5.5644
X7.5Y-1.4848
X7.6204Y-5.5644
X7.825Y-1.4848
X7.9454Y-5.5644
X8.15Y-1.4848
X8.2704Y-5.5644
X8.475Y-1.4848
X8.5954Y-5.5644
X8.8Y-1.4848
X8.9204Y-5.5644
X9.2454Y-5.5644
X9.5Y-1.8955
X9.5Y-2.2205
X9.5Y-2.5455
X9.5Y-2.8705
T0
M30
